<?xml version="1.0" standalone="no"?>
<!DOCTYPE svg PUBLIC "-//W3C//DTD SVG 20010904//EN"
 "http://www.w3.org/TR/2001/REC-SVG-20010904/DTD/svg10.dtd">
<svg version="1.0" xmlns="http://www.w3.org/2000/svg"
 width="500.000000pt" height="500.000000pt" viewBox="0 0 500.000000 500.000000"
 preserveAspectRatio="xMidYMid meet">
<metadata>
Created by potrace 1.11, written by Peter Selinger 2001-2013
</metadata>
<g transform="translate(0.000000,500.000000) scale(0.100000,-0.100000)"
fill="#000000" stroke="none">
<path d="M0 2500 l0 -2500 2500 0 2500 0 0 2500 0 2500 -2500 0 -2500 0 0
-2500z m3000 1990 c371 -46 687 -130 938 -250 l102 -49 0 -450 0 -451 -530 0
-530 0 0 33 c0 89 -41 152 -121 186 -135 59 -383 25 -432 -59 -27 -45 -32
-118 -10 -160 25 -49 80 -76 343 -165 715 -244 989 -405 1188 -700 138 -204
191 -423 179 -735 -13 -333 -103 -577 -285 -771 -211 -225 -491 -349 -937
-416 -169 -25 -713 -25 -930 0 -377 44 -745 125 -987 219 l-78 29 0 500 0 499
554 0 553 0 5 -65 c8 -88 45 -164 95 -192 82 -46 276 -55 386 -17 123 42 165
184 82 281 -46 54 -125 93 -410 206 -436 172 -626 262 -805 381 -136 90 -287
241 -354 354 -96 161 -146 371 -146 612 0 479 189 814 565 999 182 90 438 156
695 180 63 6 133 13 155 15 77 7 631 -3 715 -14z"/>
</g>
</svg>
